<mxfile host="app.diagrams.net" agent="Mozilla/5.0 (Windows NT 10.0; Win64; x64; rv:136.0) Gecko/20100101 Firefox/136.0" version="26.1.0">
  <diagram name="Page-1" id="Gu-CNEaIPs1d0ezsytCt">
    <mxGraphModel dx="1900" dy="1666" grid="1" gridSize="10" guides="1" tooltips="1" connect="1" arrows="1" fold="1" page="1" pageScale="1" pageWidth="850" pageHeight="1100" math="0" shadow="0">
      <root>
        <mxCell id="0" />
        <mxCell id="1" parent="0" />
        <mxCell id="Ax3Nw2GQNLzpphQHoT2m-9" style="edgeStyle=orthogonalEdgeStyle;rounded=0;orthogonalLoop=1;jettySize=auto;html=1;fillColor=#f5f5f5;strokeColor=light-dark(#000000, #959595);startArrow=classic;startFill=1;shape=link;gradientColor=#b3b3b3;" parent="1" source="Ax3Nw2GQNLzpphQHoT2m-1" target="Ax3Nw2GQNLzpphQHoT2m-2" edge="1">
          <mxGeometry relative="1" as="geometry" />
        </mxCell>
        <mxCell id="Ax3Nw2GQNLzpphQHoT2m-10" value="&lt;div&gt;1. Send Events&lt;/div&gt;" style="edgeLabel;html=1;align=center;verticalAlign=middle;resizable=0;points=[];" parent="Ax3Nw2GQNLzpphQHoT2m-9" vertex="1" connectable="0">
          <mxGeometry x="-0.1957" y="-3" relative="1" as="geometry">
            <mxPoint as="offset" />
          </mxGeometry>
        </mxCell>
        <mxCell id="BQLhIAQZvuf8Yta9HJ_h-2" value="Text" style="edgeLabel;html=1;align=center;verticalAlign=middle;resizable=0;points=[];" parent="Ax3Nw2GQNLzpphQHoT2m-9" vertex="1" connectable="0">
          <mxGeometry x="0.6739" y="2" relative="1" as="geometry">
            <mxPoint as="offset" />
          </mxGeometry>
        </mxCell>
        <mxCell id="Ax3Nw2GQNLzpphQHoT2m-1" value="&lt;div&gt;Windows10 &lt;br&gt;&lt;/div&gt;&lt;div&gt;Wazuh Agent&lt;/div&gt;" style="fontColor=#0066CC;verticalAlign=top;verticalLabelPosition=bottom;labelPosition=center;align=center;html=1;outlineConnect=0;fillColor=#CCCCCC;strokeColor=#6881B3;gradientColor=none;gradientDirection=north;strokeWidth=2;shape=mxgraph.networks.pc;" parent="1" vertex="1">
          <mxGeometry x="384" y="490" width="100" height="70" as="geometry" />
        </mxCell>
        <mxCell id="Ax3Nw2GQNLzpphQHoT2m-11" style="rounded=0;orthogonalLoop=1;jettySize=auto;html=1;shape=link;entryX=1;entryY=0.5;entryDx=0;entryDy=0;entryPerimeter=0;" parent="1" source="Ax3Nw2GQNLzpphQHoT2m-2" target="6lA_h5AEeJhjG7qNSmuE-1" edge="1">
          <mxGeometry relative="1" as="geometry" />
        </mxCell>
        <mxCell id="6lA_h5AEeJhjG7qNSmuE-2" value="&lt;font style=&quot;font-size: 12px;&quot;&gt;Send Events&lt;/font&gt;" style="edgeLabel;html=1;align=center;verticalAlign=middle;resizable=0;points=[];" vertex="1" connectable="0" parent="Ax3Nw2GQNLzpphQHoT2m-11">
          <mxGeometry x="-0.1747" y="1" relative="1" as="geometry">
            <mxPoint as="offset" />
          </mxGeometry>
        </mxCell>
        <mxCell id="Ax3Nw2GQNLzpphQHoT2m-2" value="&lt;div&gt;&lt;font style=&quot;font-size: 16px;&quot;&gt;Router&lt;/font&gt;&lt;/div&gt;" style="image;aspect=fixed;html=1;points=[];align=center;fontSize=12;image=img/lib/azure2/networking/Virtual_Router.svg;" parent="1" vertex="1">
          <mxGeometry x="400" y="330" width="68" height="68" as="geometry" />
        </mxCell>
        <mxCell id="Ax3Nw2GQNLzpphQHoT2m-27" style="rounded=0;orthogonalLoop=1;jettySize=auto;html=1;exitX=0;exitY=0;exitDx=0;exitDy=0;shape=link;fillColor=#e51400;strokeColor=#B20000;" parent="1" source="Ax3Nw2GQNLzpphQHoT2m-3" target="Ax3Nw2GQNLzpphQHoT2m-7" edge="1">
          <mxGeometry relative="1" as="geometry">
            <Array as="points" />
          </mxGeometry>
        </mxCell>
        <mxCell id="Ax3Nw2GQNLzpphQHoT2m-3" value="&lt;font style=&quot;font-size: 16px;&quot;&gt;Internet&lt;/font&gt;" style="image;aspect=fixed;perimeter=ellipsePerimeter;html=1;align=center;shadow=0;dashed=0;spacingTop=3;image=img/lib/active_directory/internet_cloud.svg;" parent="1" vertex="1">
          <mxGeometry x="600" y="150" width="129.37" height="81.5" as="geometry" />
        </mxCell>
        <mxCell id="Ax3Nw2GQNLzpphQHoT2m-14" style="rounded=0;orthogonalLoop=1;jettySize=auto;html=1;entryX=0;entryY=0.5;entryDx=0;entryDy=0;shape=link;fillColor=#b0e3e6;strokeColor=#0e8088;" parent="1" source="6lA_h5AEeJhjG7qNSmuE-1" target="Ax3Nw2GQNLzpphQHoT2m-7" edge="1">
          <mxGeometry relative="1" as="geometry">
            <mxPoint x="173.06383637546287" y="167.94757574746745" as="sourcePoint" />
          </mxGeometry>
        </mxCell>
        <mxCell id="Ax3Nw2GQNLzpphQHoT2m-15" value="3. Send alerts" style="edgeLabel;html=1;align=center;verticalAlign=middle;resizable=0;points=[];" parent="Ax3Nw2GQNLzpphQHoT2m-14" vertex="1" connectable="0">
          <mxGeometry x="-0.1118" y="4" relative="1" as="geometry">
            <mxPoint as="offset" />
          </mxGeometry>
        </mxCell>
        <mxCell id="Ax3Nw2GQNLzpphQHoT2m-16" style="rounded=0;orthogonalLoop=1;jettySize=auto;html=1;shape=link;fillColor=#fad9d5;strokeColor=#ae4132;" parent="1" source="Ax3Nw2GQNLzpphQHoT2m-7" target="Ax3Nw2GQNLzpphQHoT2m-3" edge="1">
          <mxGeometry relative="1" as="geometry">
            <Array as="points">
              <mxPoint x="660" y="60" />
            </Array>
          </mxGeometry>
        </mxCell>
        <mxCell id="Ax3Nw2GQNLzpphQHoT2m-17" value="4. Enrich IoCs" style="edgeLabel;html=1;align=center;verticalAlign=middle;resizable=0;points=[];" parent="Ax3Nw2GQNLzpphQHoT2m-16" vertex="1" connectable="0">
          <mxGeometry x="0.2911" y="-2" relative="1" as="geometry">
            <mxPoint as="offset" />
          </mxGeometry>
        </mxCell>
        <mxCell id="Ax3Nw2GQNLzpphQHoT2m-18" style="rounded=0;orthogonalLoop=1;jettySize=auto;html=1;entryX=1;entryY=0.25;entryDx=0;entryDy=0;shape=link;fillColor=#bac8d3;strokeColor=light-dark(#0e8088, #a0bcd2);entryPerimeter=0;" parent="1" source="Ax3Nw2GQNLzpphQHoT2m-7" target="6lA_h5AEeJhjG7qNSmuE-1" edge="1">
          <mxGeometry relative="1" as="geometry">
            <Array as="points">
              <mxPoint x="300" y="180" />
            </Array>
          </mxGeometry>
        </mxCell>
        <mxCell id="Ax3Nw2GQNLzpphQHoT2m-19" value="5. Send alerts" style="edgeLabel;html=1;align=center;verticalAlign=middle;resizable=0;points=[];" parent="Ax3Nw2GQNLzpphQHoT2m-18" vertex="1" connectable="0">
          <mxGeometry x="-0.0417" y="-5" relative="1" as="geometry">
            <mxPoint as="offset" />
          </mxGeometry>
        </mxCell>
        <mxCell id="Ax3Nw2GQNLzpphQHoT2m-20" style="edgeStyle=orthogonalEdgeStyle;rounded=0;orthogonalLoop=1;jettySize=auto;html=1;entryX=1;entryY=0.5;entryDx=0;entryDy=0;fillColor=#fad7ac;strokeColor=#b46504;shape=link;" parent="1" source="Ax3Nw2GQNLzpphQHoT2m-7" target="Ax3Nw2GQNLzpphQHoT2m-3" edge="1">
          <mxGeometry relative="1" as="geometry" />
        </mxCell>
        <mxCell id="Ax3Nw2GQNLzpphQHoT2m-21" value="6. Sending email" style="edgeLabel;html=1;align=center;verticalAlign=middle;resizable=0;points=[];" parent="Ax3Nw2GQNLzpphQHoT2m-20" vertex="1" connectable="0">
          <mxGeometry x="0.3347" y="-2" relative="1" as="geometry">
            <mxPoint as="offset" />
          </mxGeometry>
        </mxCell>
        <mxCell id="Ax3Nw2GQNLzpphQHoT2m-28" style="edgeStyle=orthogonalEdgeStyle;rounded=0;orthogonalLoop=1;jettySize=auto;html=1;shape=link;fillColor=#e51400;strokeColor=#B20000;" parent="1" source="Ax3Nw2GQNLzpphQHoT2m-7" target="6lA_h5AEeJhjG7qNSmuE-1" edge="1">
          <mxGeometry relative="1" as="geometry">
            <mxPoint x="134.68499999999995" y="160" as="targetPoint" />
          </mxGeometry>
        </mxCell>
        <mxCell id="Ax3Nw2GQNLzpphQHoT2m-29" value="8. Send Response Action" style="edgeLabel;html=1;align=center;verticalAlign=middle;resizable=0;points=[];" parent="Ax3Nw2GQNLzpphQHoT2m-28" vertex="1" connectable="0">
          <mxGeometry x="-0.2165" y="-1" relative="1" as="geometry">
            <mxPoint as="offset" />
          </mxGeometry>
        </mxCell>
        <mxCell id="Ax3Nw2GQNLzpphQHoT2m-7" value="&lt;font style=&quot;font-size: 16px;&quot;&gt;Shuffle&lt;/font&gt;" style="image;aspect=fixed;perimeter=ellipsePerimeter;html=1;align=center;shadow=0;dashed=0;spacingTop=3;image=img/lib/active_directory/internet_cloud.svg;" parent="1" vertex="1">
          <mxGeometry x="369.32" y="-40" width="129.37" height="81.5" as="geometry" />
        </mxCell>
        <mxCell id="Ax3Nw2GQNLzpphQHoT2m-22" style="rounded=0;orthogonalLoop=1;jettySize=auto;html=1;shape=link;fillColor=#fad7ac;strokeColor=#b46504;" parent="1" source="Ax3Nw2GQNLzpphQHoT2m-3" target="Ax3Nw2GQNLzpphQHoT2m-1" edge="1">
          <mxGeometry relative="1" as="geometry">
            <Array as="points">
              <mxPoint x="690" y="370" />
            </Array>
          </mxGeometry>
        </mxCell>
        <mxCell id="Ax3Nw2GQNLzpphQHoT2m-24" value="7. Send &amp;amp; Receive email" style="edgeLabel;html=1;align=center;verticalAlign=middle;resizable=0;points=[];" parent="Ax3Nw2GQNLzpphQHoT2m-22" vertex="1" connectable="0">
          <mxGeometry x="-0.1432" y="2" relative="1" as="geometry">
            <mxPoint as="offset" />
          </mxGeometry>
        </mxCell>
        <mxCell id="Ax3Nw2GQNLzpphQHoT2m-25" style="rounded=0;orthogonalLoop=1;jettySize=auto;html=1;shape=link;fillColor=#e51400;strokeColor=#B20000;exitX=1;exitY=0.07;exitDx=0;exitDy=0;exitPerimeter=0;" parent="1" source="Ax3Nw2GQNLzpphQHoT2m-1" target="Ax3Nw2GQNLzpphQHoT2m-3" edge="1">
          <mxGeometry relative="1" as="geometry">
            <Array as="points">
              <mxPoint x="560" y="350" />
            </Array>
          </mxGeometry>
        </mxCell>
        <mxCell id="Ax3Nw2GQNLzpphQHoT2m-26" value="8. Send Response Action" style="edgeLabel;html=1;align=center;verticalAlign=middle;resizable=0;points=[];" parent="Ax3Nw2GQNLzpphQHoT2m-25" vertex="1" connectable="0">
          <mxGeometry x="-0.0573" y="1" relative="1" as="geometry">
            <mxPoint x="29" y="-45" as="offset" />
          </mxGeometry>
        </mxCell>
        <mxCell id="Ax3Nw2GQNLzpphQHoT2m-31" style="edgeStyle=orthogonalEdgeStyle;rounded=0;orthogonalLoop=1;jettySize=auto;html=1;entryX=0;entryY=0.5;entryDx=0;entryDy=0;entryPerimeter=0;shape=link;fillColor=#e51400;strokeColor=#B20000;exitX=0.5;exitY=1;exitDx=0;exitDy=0;exitPerimeter=0;" parent="1" source="6lA_h5AEeJhjG7qNSmuE-1" target="Ax3Nw2GQNLzpphQHoT2m-1" edge="1">
          <mxGeometry relative="1" as="geometry">
            <Array as="points">
              <mxPoint x="140" y="525" />
            </Array>
            <mxPoint x="140" y="241.3622054990269" as="sourcePoint" />
          </mxGeometry>
        </mxCell>
        <mxCell id="Ax3Nw2GQNLzpphQHoT2m-32" value="8. Perform Response Action" style="edgeLabel;html=1;align=center;verticalAlign=middle;resizable=0;points=[];" parent="Ax3Nw2GQNLzpphQHoT2m-31" vertex="1" connectable="0">
          <mxGeometry x="-0.4094" y="1" relative="1" as="geometry">
            <mxPoint as="offset" />
          </mxGeometry>
        </mxCell>
        <mxCell id="Ax3Nw2GQNLzpphQHoT2m-36" style="edgeStyle=orthogonalEdgeStyle;rounded=0;orthogonalLoop=1;jettySize=auto;html=1;" parent="1" source="Ax3Nw2GQNLzpphQHoT2m-34" target="Ax3Nw2GQNLzpphQHoT2m-35" edge="1">
          <mxGeometry relative="1" as="geometry" />
        </mxCell>
        <mxCell id="Ax3Nw2GQNLzpphQHoT2m-34" value="&lt;div&gt;Windows 10&lt;/div&gt;&lt;div&gt;Send Events&lt;/div&gt;" style="text;html=1;align=center;verticalAlign=middle;resizable=0;points=[];autosize=1;strokeColor=none;fillColor=none;" parent="1" vertex="1">
          <mxGeometry x="-25" y="723" width="90" height="40" as="geometry" />
        </mxCell>
        <mxCell id="Ax3Nw2GQNLzpphQHoT2m-41" style="edgeStyle=orthogonalEdgeStyle;rounded=0;orthogonalLoop=1;jettySize=auto;html=1;" parent="1" source="Ax3Nw2GQNLzpphQHoT2m-35" target="Ax3Nw2GQNLzpphQHoT2m-37" edge="1">
          <mxGeometry relative="1" as="geometry" />
        </mxCell>
        <mxCell id="Ax3Nw2GQNLzpphQHoT2m-35" value="&lt;div&gt;Wazuh Manager&lt;/div&gt;&lt;div&gt;Trigger alerts &amp;amp; Performe response actions&lt;/div&gt;" style="text;html=1;align=center;verticalAlign=middle;resizable=0;points=[];autosize=1;strokeColor=none;fillColor=none;" parent="1" vertex="1">
          <mxGeometry x="140" y="723" width="250" height="40" as="geometry" />
        </mxCell>
        <mxCell id="Ax3Nw2GQNLzpphQHoT2m-42" style="edgeStyle=orthogonalEdgeStyle;rounded=0;orthogonalLoop=1;jettySize=auto;html=1;" parent="1" source="Ax3Nw2GQNLzpphQHoT2m-37" target="Ax3Nw2GQNLzpphQHoT2m-38" edge="1">
          <mxGeometry relative="1" as="geometry" />
        </mxCell>
        <mxCell id="Ax3Nw2GQNLzpphQHoT2m-44" style="edgeStyle=orthogonalEdgeStyle;rounded=0;orthogonalLoop=1;jettySize=auto;html=1;" parent="1" source="Ax3Nw2GQNLzpphQHoT2m-37" target="Ax3Nw2GQNLzpphQHoT2m-39" edge="1">
          <mxGeometry relative="1" as="geometry" />
        </mxCell>
        <mxCell id="Ax3Nw2GQNLzpphQHoT2m-45" style="edgeStyle=orthogonalEdgeStyle;rounded=0;orthogonalLoop=1;jettySize=auto;html=1;" parent="1" source="Ax3Nw2GQNLzpphQHoT2m-37" target="Ax3Nw2GQNLzpphQHoT2m-40" edge="1">
          <mxGeometry relative="1" as="geometry" />
        </mxCell>
        <mxCell id="Ax3Nw2GQNLzpphQHoT2m-37" value="&lt;div&gt;Shuffle&lt;/div&gt;&lt;div&gt;Receive Wazuh Alerts &amp;amp; Send responsive actions&lt;/div&gt;" style="text;html=1;align=center;verticalAlign=middle;resizable=0;points=[];autosize=1;strokeColor=none;fillColor=none;" parent="1" vertex="1">
          <mxGeometry x="468" y="723" width="290" height="40" as="geometry" />
        </mxCell>
        <mxCell id="Ax3Nw2GQNLzpphQHoT2m-38" value="&lt;div&gt;OSINT&lt;/div&gt;&lt;div&gt;Enrich IoCs&lt;/div&gt;" style="text;html=1;align=center;verticalAlign=middle;resizable=0;points=[];autosize=1;strokeColor=none;fillColor=none;" parent="1" vertex="1">
          <mxGeometry x="568" y="620" width="90" height="40" as="geometry" />
        </mxCell>
        <mxCell id="Ax3Nw2GQNLzpphQHoT2m-39" value="&lt;div&gt;TheHIve&lt;/div&gt;&lt;div&gt;Create alert in case management&lt;/div&gt;" style="text;html=1;align=center;verticalAlign=middle;resizable=0;points=[];autosize=1;strokeColor=none;fillColor=none;" parent="1" vertex="1">
          <mxGeometry x="513" y="830" width="200" height="40" as="geometry" />
        </mxCell>
        <mxCell id="Ax3Nw2GQNLzpphQHoT2m-40" value="&lt;div&gt;Email&lt;/div&gt;&lt;div&gt;Send email &amp;amp; responsive actions&lt;/div&gt;" style="text;html=1;align=center;verticalAlign=middle;resizable=0;points=[];autosize=1;strokeColor=none;fillColor=none;" parent="1" vertex="1">
          <mxGeometry x="850" y="723" width="200" height="40" as="geometry" />
        </mxCell>
        <mxCell id="6lA_h5AEeJhjG7qNSmuE-1" value="&lt;div&gt;&lt;font style=&quot;font-size: 16px;&quot;&gt;Wazuh&lt;/font&gt;&lt;/div&gt;&lt;div&gt;&lt;font style=&quot;font-size: 16px;&quot;&gt;server&lt;/font&gt;&lt;/div&gt;" style="fontColor=#0066CC;verticalAlign=top;verticalLabelPosition=bottom;labelPosition=center;align=center;html=1;outlineConnect=0;fillColor=#CCCCCC;strokeColor=#6881B3;gradientColor=none;gradientDirection=north;strokeWidth=2;shape=mxgraph.networks.pc;" vertex="1" parent="1">
          <mxGeometry x="80" y="160" width="120" height="80" as="geometry" />
        </mxCell>
      </root>
    </mxGraphModel>
  </diagram>
</mxfile>
